<mxfile host="app.diagrams.net" modified="2023-11-07T14:53:03.744Z" agent="Mozilla/5.0 (X11; Linux x86_64) AppleWebKit/537.36 (KHTML, like Gecko) Chrome/118.0.0.0 Safari/537.36" etag="cWA8QFTo3VffXc63yBIp" version="22.0.8" type="google">
  <diagram name="006-ontology" id="O0EzCrE9_i2seC9WDiSg">
    <mxGraphModel grid="1" page="1" gridSize="10" guides="1" tooltips="1" connect="1" arrows="1" fold="1" pageScale="1" pageWidth="827" pageHeight="1169" math="0" shadow="0">
      <root>
        <mxCell id="0" />
        <mxCell id="1" parent="0" />
        <mxCell id="VSZ_r1YbwB4cjB5XSmfl-58" value="&lt;div&gt;&lt;i&gt;This work is licensed under a&lt;/i&gt;&lt;/div&gt;&lt;div&gt;&lt;b&gt;&lt;i&gt;Creative Commons Attribution 4.0 International License&lt;/i&gt;&lt;/b&gt;&lt;/div&gt;" style="text;html=1;strokeColor=none;fillColor=none;align=center;verticalAlign=middle;whiteSpace=wrap;rounded=0;fontSize=20;fontFamily=Architects Daughter;" vertex="1" parent="1">
          <mxGeometry x="20" y="660" width="560" height="60" as="geometry" />
        </mxCell>
        <mxCell id="YPxERGL3VWhooXW9-70G-1" value="" style="rounded=1;whiteSpace=wrap;html=1;sketch=1;curveFitting=1;jiggle=2;strokeColor=#808080;" vertex="1" parent="1">
          <mxGeometry x="20" y="-40" width="560" height="680" as="geometry" />
        </mxCell>
        <mxCell id="YPxERGL3VWhooXW9-70G-2" value="" style="ellipse;whiteSpace=wrap;html=1;aspect=fixed;sketch=1;curveFitting=1;jiggle=2;strokeColor=#009900;fillColor=#009900;" vertex="1" parent="1">
          <mxGeometry x="137.5" y="85" width="35" height="35" as="geometry" />
        </mxCell>
        <mxCell id="YPxERGL3VWhooXW9-70G-3" value="" style="endArrow=classic;html=1;rounded=0;sketch=1;curveFitting=1;jiggle=2;entryX=0;entryY=0.5;entryDx=0;entryDy=0;strokeColor=#808080;" edge="1" parent="1" source="YPxERGL3VWhooXW9-70G-2" target="YPxERGL3VWhooXW9-70G-6">
          <mxGeometry width="50" height="50" relative="1" as="geometry">
            <mxPoint x="342.09786437626894" y="134.99786437626892" as="sourcePoint" />
            <mxPoint x="210.0044141375322" y="199.14" as="targetPoint" />
          </mxGeometry>
        </mxCell>
        <mxCell id="YPxERGL3VWhooXW9-70G-4" value="&lt;font color=&quot;#009900&quot; style=&quot;font-size: 26px;&quot; data-font-src=&quot;https://fonts.googleapis.com/css?family=Caveat&quot; face=&quot;Caveat&quot;&gt;Structure&lt;/font&gt;" style="text;html=1;strokeColor=none;fillColor=none;align=center;verticalAlign=middle;whiteSpace=wrap;rounded=0;" vertex="1" parent="1">
          <mxGeometry x="50" y="-20" width="520" height="40" as="geometry" />
        </mxCell>
        <mxCell id="YPxERGL3VWhooXW9-70G-5" value="&lt;b&gt;&lt;u&gt;Creative Work&lt;/u&gt;&lt;/b&gt;" style="text;html=1;strokeColor=none;fillColor=none;align=center;verticalAlign=middle;whiteSpace=wrap;rounded=0;" vertex="1" parent="1">
          <mxGeometry x="405.5" y="40" width="60" height="30" as="geometry" />
        </mxCell>
        <mxCell id="YPxERGL3VWhooXW9-70G-6" value="" style="ellipse;whiteSpace=wrap;html=1;aspect=fixed;sketch=1;curveFitting=1;jiggle=2;strokeColor=#009900;fillColor=#009900;" vertex="1" parent="1">
          <mxGeometry x="418" y="85" width="35" height="35" as="geometry" />
        </mxCell>
        <mxCell id="YPxERGL3VWhooXW9-70G-7" value="" style="ellipse;whiteSpace=wrap;html=1;aspect=fixed;sketch=1;curveFitting=1;jiggle=2;strokeColor=#009900;fillColor=#009900;" vertex="1" parent="1">
          <mxGeometry x="520" y="180" width="20" height="20" as="geometry" />
        </mxCell>
        <mxCell id="YPxERGL3VWhooXW9-70G-8" value="" style="ellipse;whiteSpace=wrap;html=1;aspect=fixed;sketch=1;curveFitting=1;jiggle=2;strokeColor=#009900;fillColor=#009900;" vertex="1" parent="1">
          <mxGeometry x="425.5" y="180" width="20" height="20" as="geometry" />
        </mxCell>
        <mxCell id="YPxERGL3VWhooXW9-70G-9" value="" style="ellipse;whiteSpace=wrap;html=1;aspect=fixed;sketch=1;curveFitting=1;jiggle=2;strokeColor=#009900;fillColor=#009900;" vertex="1" parent="1">
          <mxGeometry x="339" y="180" width="20" height="20" as="geometry" />
        </mxCell>
        <mxCell id="YPxERGL3VWhooXW9-70G-10" value="" style="endArrow=classic;html=1;rounded=0;sketch=1;curveFitting=1;jiggle=2;exitX=1;exitY=1;exitDx=0;exitDy=0;entryX=0;entryY=0;entryDx=0;entryDy=0;strokeColor=#808080;" edge="1" parent="1" source="YPxERGL3VWhooXW9-70G-6" target="YPxERGL3VWhooXW9-70G-7">
          <mxGeometry width="50" height="50" relative="1" as="geometry">
            <mxPoint x="265" y="170" as="sourcePoint" />
            <mxPoint x="549" y="190" as="targetPoint" />
          </mxGeometry>
        </mxCell>
        <mxCell id="YPxERGL3VWhooXW9-70G-11" value="" style="endArrow=classic;html=1;rounded=0;sketch=1;curveFitting=1;jiggle=2;entryX=0.5;entryY=0;entryDx=0;entryDy=0;exitX=0.5;exitY=1;exitDx=0;exitDy=0;strokeColor=#808080;" edge="1" parent="1" source="YPxERGL3VWhooXW9-70G-6" target="YPxERGL3VWhooXW9-70G-8">
          <mxGeometry width="50" height="50" relative="1" as="geometry">
            <mxPoint x="309" y="70" as="sourcePoint" />
            <mxPoint x="563" y="70" as="targetPoint" />
          </mxGeometry>
        </mxCell>
        <mxCell id="YPxERGL3VWhooXW9-70G-12" value="" style="endArrow=classic;html=1;rounded=0;sketch=1;curveFitting=1;jiggle=2;exitX=0;exitY=1;exitDx=0;exitDy=0;entryX=0.5;entryY=0;entryDx=0;entryDy=0;strokeColor=#808080;" edge="1" parent="1" source="YPxERGL3VWhooXW9-70G-6" target="YPxERGL3VWhooXW9-70G-9">
          <mxGeometry width="50" height="50" relative="1" as="geometry">
            <mxPoint x="309" y="70" as="sourcePoint" />
            <mxPoint x="409" y="160" as="targetPoint" />
          </mxGeometry>
        </mxCell>
        <mxCell id="YPxERGL3VWhooXW9-70G-13" value="" style="ellipse;whiteSpace=wrap;html=1;aspect=fixed;sketch=1;curveFitting=1;jiggle=2;strokeColor=#009900;fillColor=#009900;" vertex="1" parent="1">
          <mxGeometry x="97.5" y="175" width="20" height="20" as="geometry" />
        </mxCell>
        <mxCell id="YPxERGL3VWhooXW9-70G-14" value="&lt;b&gt;&lt;u&gt;Movie&lt;/u&gt;&lt;/b&gt;" style="text;html=1;strokeColor=none;fillColor=none;align=center;verticalAlign=middle;whiteSpace=wrap;rounded=0;" vertex="1" parent="1">
          <mxGeometry x="125" y="40" width="60" height="30" as="geometry" />
        </mxCell>
        <mxCell id="YPxERGL3VWhooXW9-70G-15" value="" style="ellipse;whiteSpace=wrap;html=1;aspect=fixed;sketch=1;curveFitting=1;jiggle=2;strokeColor=#009900;fillColor=#009900;" vertex="1" parent="1">
          <mxGeometry x="260" y="280" width="35" height="35" as="geometry" />
        </mxCell>
        <mxCell id="YPxERGL3VWhooXW9-70G-16" value="&lt;b&gt;author&lt;/b&gt;" style="text;html=1;strokeColor=none;fillColor=none;align=center;verticalAlign=middle;whiteSpace=wrap;rounded=0;" vertex="1" parent="1">
          <mxGeometry x="290" y="175" width="60" height="30" as="geometry" />
        </mxCell>
        <mxCell id="YPxERGL3VWhooXW9-70G-17" value="&lt;b&gt;editor&lt;/b&gt;" style="text;html=1;strokeColor=none;fillColor=none;align=center;verticalAlign=middle;whiteSpace=wrap;rounded=0;" vertex="1" parent="1">
          <mxGeometry x="379" y="175" width="60" height="30" as="geometry" />
        </mxCell>
        <mxCell id="YPxERGL3VWhooXW9-70G-18" value="&lt;b&gt;contributor&lt;/b&gt;" style="text;html=1;strokeColor=none;fillColor=none;align=center;verticalAlign=middle;whiteSpace=wrap;rounded=0;" vertex="1" parent="1">
          <mxGeometry x="459" y="176" width="60" height="30" as="geometry" />
        </mxCell>
        <mxCell id="YPxERGL3VWhooXW9-70G-19" value="" style="endArrow=classic;html=1;rounded=0;sketch=1;curveFitting=1;jiggle=2;exitX=0.5;exitY=1;exitDx=0;exitDy=0;entryX=1;entryY=0.5;entryDx=0;entryDy=0;strokeColor=#808080;" edge="1" parent="1" source="YPxERGL3VWhooXW9-70G-7" target="YPxERGL3VWhooXW9-70G-15">
          <mxGeometry width="50" height="50" relative="1" as="geometry">
            <mxPoint x="463" y="113" as="sourcePoint" />
            <mxPoint x="629" y="100" as="targetPoint" />
          </mxGeometry>
        </mxCell>
        <mxCell id="YPxERGL3VWhooXW9-70G-20" value="" style="endArrow=classic;html=1;rounded=0;sketch=1;curveFitting=1;jiggle=2;exitX=0.5;exitY=1;exitDx=0;exitDy=0;entryX=1;entryY=0;entryDx=0;entryDy=0;strokeColor=#808080;" edge="1" parent="1" source="YPxERGL3VWhooXW9-70G-8" target="YPxERGL3VWhooXW9-70G-15">
          <mxGeometry width="50" height="50" relative="1" as="geometry">
            <mxPoint x="572" y="74" as="sourcePoint" />
            <mxPoint x="629" y="112" as="targetPoint" />
          </mxGeometry>
        </mxCell>
        <mxCell id="YPxERGL3VWhooXW9-70G-21" value="" style="endArrow=classic;html=1;rounded=0;sketch=1;curveFitting=1;jiggle=2;entryX=0.5;entryY=0;entryDx=0;entryDy=0;exitX=0.5;exitY=1;exitDx=0;exitDy=0;strokeColor=#808080;" edge="1" parent="1" source="YPxERGL3VWhooXW9-70G-9" target="YPxERGL3VWhooXW9-70G-15">
          <mxGeometry width="50" height="50" relative="1" as="geometry">
            <mxPoint x="350" y="200" as="sourcePoint" />
            <mxPoint x="649" y="120" as="targetPoint" />
          </mxGeometry>
        </mxCell>
        <mxCell id="YPxERGL3VWhooXW9-70G-22" value="" style="ellipse;whiteSpace=wrap;html=1;aspect=fixed;sketch=1;curveFitting=1;jiggle=2;strokeColor=#009900;fillColor=#009900;" vertex="1" parent="1">
          <mxGeometry x="200" y="175" width="20" height="20" as="geometry" />
        </mxCell>
        <mxCell id="YPxERGL3VWhooXW9-70G-23" value="&lt;b&gt;&lt;u&gt;Person&lt;/u&gt;&lt;/b&gt;" style="text;html=1;strokeColor=none;fillColor=none;align=center;verticalAlign=middle;whiteSpace=wrap;rounded=0;" vertex="1" parent="1">
          <mxGeometry x="247.5" y="320" width="60" height="30" as="geometry" />
        </mxCell>
        <mxCell id="YPxERGL3VWhooXW9-70G-24" value="&lt;b&gt;director&lt;/b&gt;" style="text;html=1;strokeColor=none;fillColor=none;align=center;verticalAlign=middle;whiteSpace=wrap;rounded=0;" vertex="1" parent="1">
          <mxGeometry x="37.5" y="170" width="60" height="30" as="geometry" />
        </mxCell>
        <mxCell id="YPxERGL3VWhooXW9-70G-25" value="&lt;b&gt;actor&lt;/b&gt;" style="text;html=1;strokeColor=none;fillColor=none;align=center;verticalAlign=middle;whiteSpace=wrap;rounded=0;" vertex="1" parent="1">
          <mxGeometry x="150" y="170" width="60" height="30" as="geometry" />
        </mxCell>
        <mxCell id="YPxERGL3VWhooXW9-70G-26" value="" style="endArrow=classic;html=1;rounded=0;sketch=1;curveFitting=1;jiggle=2;exitX=1;exitY=1;exitDx=0;exitDy=0;entryX=0.5;entryY=0;entryDx=0;entryDy=0;strokeColor=#808080;" edge="1" parent="1" source="YPxERGL3VWhooXW9-70G-2" target="YPxERGL3VWhooXW9-70G-22">
          <mxGeometry width="50" height="50" relative="1" as="geometry">
            <mxPoint x="433" y="125" as="sourcePoint" />
            <mxPoint x="359" y="190" as="targetPoint" />
          </mxGeometry>
        </mxCell>
        <mxCell id="YPxERGL3VWhooXW9-70G-27" value="" style="endArrow=classic;html=1;rounded=0;sketch=1;curveFitting=1;jiggle=2;exitX=0;exitY=1;exitDx=0;exitDy=0;entryX=0.5;entryY=0;entryDx=0;entryDy=0;strokeColor=#808080;" edge="1" parent="1" source="YPxERGL3VWhooXW9-70G-2" target="YPxERGL3VWhooXW9-70G-13">
          <mxGeometry width="50" height="50" relative="1" as="geometry">
            <mxPoint x="177" y="125" as="sourcePoint" />
            <mxPoint x="200" y="188" as="targetPoint" />
          </mxGeometry>
        </mxCell>
        <mxCell id="YPxERGL3VWhooXW9-70G-28" value="" style="endArrow=classic;html=1;rounded=0;sketch=1;curveFitting=1;jiggle=2;entryX=0;entryY=0.5;entryDx=0;entryDy=0;exitX=0.5;exitY=1;exitDx=0;exitDy=0;strokeColor=#808080;" edge="1" parent="1" source="YPxERGL3VWhooXW9-70G-13" target="YPxERGL3VWhooXW9-70G-15">
          <mxGeometry width="50" height="50" relative="1" as="geometry">
            <mxPoint x="110" y="190" as="sourcePoint" />
            <mxPoint x="125" y="188" as="targetPoint" />
          </mxGeometry>
        </mxCell>
        <mxCell id="YPxERGL3VWhooXW9-70G-29" value="" style="endArrow=classic;html=1;rounded=0;sketch=1;curveFitting=1;jiggle=2;exitX=0.5;exitY=1;exitDx=0;exitDy=0;entryX=0;entryY=0;entryDx=0;entryDy=0;strokeColor=#808080;" edge="1" parent="1" source="YPxERGL3VWhooXW9-70G-22" target="YPxERGL3VWhooXW9-70G-15">
          <mxGeometry width="50" height="50" relative="1" as="geometry">
            <mxPoint x="125" y="202" as="sourcePoint" />
            <mxPoint x="270" y="308" as="targetPoint" />
          </mxGeometry>
        </mxCell>
        <mxCell id="YPxERGL3VWhooXW9-70G-30" value="&lt;i&gt;subClassOf&lt;/i&gt;" style="text;html=1;strokeColor=none;fillColor=none;align=center;verticalAlign=middle;whiteSpace=wrap;rounded=0;" vertex="1" parent="1">
          <mxGeometry x="270" y="70" width="60" height="30" as="geometry" />
        </mxCell>
        <mxCell id="YPxERGL3VWhooXW9-70G-31" value="&lt;i&gt;hasProperty&lt;/i&gt;" style="text;html=1;strokeColor=none;fillColor=none;align=center;verticalAlign=middle;whiteSpace=wrap;rounded=0;" vertex="1" parent="1">
          <mxGeometry x="405.5" y="130" width="60" height="30" as="geometry" />
        </mxCell>
        <mxCell id="YPxERGL3VWhooXW9-70G-32" value="&lt;i&gt;hasProperty&lt;/i&gt;" style="text;html=1;strokeColor=none;fillColor=none;align=center;verticalAlign=middle;whiteSpace=wrap;rounded=0;" vertex="1" parent="1">
          <mxGeometry x="125" y="130" width="60" height="30" as="geometry" />
        </mxCell>
        <mxCell id="YPxERGL3VWhooXW9-70G-33" value="&lt;i&gt;dataType&lt;/i&gt;" style="text;html=1;strokeColor=none;fillColor=none;align=center;verticalAlign=middle;whiteSpace=wrap;rounded=0;" vertex="1" parent="1">
          <mxGeometry x="140" y="250" width="60" height="30" as="geometry" />
        </mxCell>
        <mxCell id="YPxERGL3VWhooXW9-70G-34" value="&lt;i&gt;dataType&lt;/i&gt;" style="text;html=1;strokeColor=none;fillColor=none;align=center;verticalAlign=middle;whiteSpace=wrap;rounded=0;" vertex="1" parent="1">
          <mxGeometry x="412.5" y="241" width="60" height="30" as="geometry" />
        </mxCell>
        <mxCell id="YPxERGL3VWhooXW9-70G-35" value="Assets" style="childLayout=tableLayout;recursiveResize=0;strokeColor=#98bf21;fillColor=#A7C942;shadow=1;" vertex="1" parent="1">
          <mxGeometry x="50" y="430" width="500" height="175" as="geometry" />
        </mxCell>
        <mxCell id="YPxERGL3VWhooXW9-70G-36" style="shape=tableRow;horizontal=0;startSize=0;swimlaneHead=0;swimlaneBody=0;top=0;left=0;bottom=0;right=0;dropTarget=0;collapsible=0;recursiveResize=0;expand=0;fontStyle=0;strokeColor=inherit;fillColor=#ffffff;" vertex="1" parent="YPxERGL3VWhooXW9-70G-35">
          <mxGeometry width="500" height="33" as="geometry" />
        </mxCell>
        <mxCell id="YPxERGL3VWhooXW9-70G-37" value="Term" style="connectable=0;recursiveResize=0;strokeColor=inherit;fillColor=#A7C942;align=center;fontStyle=1;fontColor=#FFFFFF;html=1;" vertex="1" parent="YPxERGL3VWhooXW9-70G-36">
          <mxGeometry width="108" height="33" as="geometry">
            <mxRectangle width="108" height="33" as="alternateBounds" />
          </mxGeometry>
        </mxCell>
        <mxCell id="YPxERGL3VWhooXW9-70G-38" value="Type" style="connectable=0;recursiveResize=0;strokeColor=inherit;fillColor=#A7C942;align=center;fontStyle=1;fontColor=#FFFFFF;html=1;" vertex="1" parent="YPxERGL3VWhooXW9-70G-36">
          <mxGeometry x="108" width="122" height="33" as="geometry">
            <mxRectangle width="122" height="33" as="alternateBounds" />
          </mxGeometry>
        </mxCell>
        <mxCell id="YPxERGL3VWhooXW9-70G-39" value="Definition" style="connectable=0;recursiveResize=0;strokeColor=inherit;fillColor=#A7C942;align=center;fontStyle=1;fontColor=#FFFFFF;html=1;" vertex="1" parent="YPxERGL3VWhooXW9-70G-36">
          <mxGeometry x="230" width="270" height="33" as="geometry">
            <mxRectangle width="270" height="33" as="alternateBounds" />
          </mxGeometry>
        </mxCell>
        <mxCell id="YPxERGL3VWhooXW9-70G-40" value="" style="shape=tableRow;horizontal=0;startSize=0;swimlaneHead=0;swimlaneBody=0;top=0;left=0;bottom=0;right=0;dropTarget=0;collapsible=0;recursiveResize=0;expand=0;fontStyle=0;strokeColor=inherit;fillColor=#ffffff;" vertex="1" parent="YPxERGL3VWhooXW9-70G-35">
          <mxGeometry y="33" width="500" height="47" as="geometry" />
        </mxCell>
        <mxCell id="YPxERGL3VWhooXW9-70G-41" value="Creative Work" style="connectable=0;recursiveResize=0;strokeColor=inherit;fillColor=inherit;align=center;whiteSpace=wrap;html=1;" vertex="1" parent="YPxERGL3VWhooXW9-70G-40">
          <mxGeometry width="108" height="47" as="geometry">
            <mxRectangle width="108" height="47" as="alternateBounds" />
          </mxGeometry>
        </mxCell>
        <mxCell id="YPxERGL3VWhooXW9-70G-42" value="Class" style="connectable=0;recursiveResize=0;strokeColor=inherit;fillColor=inherit;align=center;whiteSpace=wrap;html=1;" vertex="1" parent="YPxERGL3VWhooXW9-70G-40">
          <mxGeometry x="108" width="122" height="47" as="geometry">
            <mxRectangle width="122" height="47" as="alternateBounds" />
          </mxGeometry>
        </mxCell>
        <mxCell id="YPxERGL3VWhooXW9-70G-43" value="&lt;div style=&quot;&quot;&gt;&lt;span style=&quot;font-size: 10px; background-color: initial;&quot;&gt;The most generic kind of creative work, including books, movies, photographs, software programs, etc.&lt;/span&gt;&lt;/div&gt;" style="connectable=0;recursiveResize=0;strokeColor=inherit;fillColor=inherit;align=left;whiteSpace=wrap;html=1;" vertex="1" parent="YPxERGL3VWhooXW9-70G-40">
          <mxGeometry x="230" width="270" height="47" as="geometry">
            <mxRectangle width="270" height="47" as="alternateBounds" />
          </mxGeometry>
        </mxCell>
        <mxCell id="YPxERGL3VWhooXW9-70G-44" value="" style="shape=tableRow;horizontal=0;startSize=0;swimlaneHead=0;swimlaneBody=0;top=0;left=0;bottom=0;right=0;dropTarget=0;collapsible=0;recursiveResize=0;expand=0;fontStyle=1;strokeColor=inherit;fillColor=#EAF2D3;" vertex="1" parent="YPxERGL3VWhooXW9-70G-35">
          <mxGeometry y="80" width="500" height="31" as="geometry" />
        </mxCell>
        <mxCell id="YPxERGL3VWhooXW9-70G-45" value="author" style="connectable=0;recursiveResize=0;strokeColor=inherit;fillColor=inherit;whiteSpace=wrap;html=1;" vertex="1" parent="YPxERGL3VWhooXW9-70G-44">
          <mxGeometry width="108" height="31" as="geometry">
            <mxRectangle width="108" height="31" as="alternateBounds" />
          </mxGeometry>
        </mxCell>
        <mxCell id="YPxERGL3VWhooXW9-70G-46" value="Property" style="connectable=0;recursiveResize=0;strokeColor=inherit;fillColor=inherit;whiteSpace=wrap;html=1;" vertex="1" parent="YPxERGL3VWhooXW9-70G-44">
          <mxGeometry x="108" width="122" height="31" as="geometry">
            <mxRectangle width="122" height="31" as="alternateBounds" />
          </mxGeometry>
        </mxCell>
        <mxCell id="YPxERGL3VWhooXW9-70G-47" value="&lt;font style=&quot;font-size: 10px;&quot;&gt;The author of this content or rating&lt;/font&gt;." style="connectable=0;recursiveResize=0;strokeColor=inherit;fillColor=inherit;whiteSpace=wrap;html=1;align=left;" vertex="1" parent="YPxERGL3VWhooXW9-70G-44">
          <mxGeometry x="230" width="270" height="31" as="geometry">
            <mxRectangle width="270" height="31" as="alternateBounds" />
          </mxGeometry>
        </mxCell>
        <mxCell id="YPxERGL3VWhooXW9-70G-48" value="" style="shape=tableRow;horizontal=0;startSize=0;swimlaneHead=0;swimlaneBody=0;top=0;left=0;bottom=0;right=0;dropTarget=0;collapsible=0;recursiveResize=0;expand=0;fontStyle=0;strokeColor=inherit;fillColor=#ffffff;" vertex="1" parent="YPxERGL3VWhooXW9-70G-35">
          <mxGeometry y="111" width="500" height="33" as="geometry" />
        </mxCell>
        <mxCell id="YPxERGL3VWhooXW9-70G-49" value="editor" style="connectable=0;recursiveResize=0;strokeColor=inherit;fillColor=inherit;fontStyle=0;align=center;whiteSpace=wrap;html=1;" vertex="1" parent="YPxERGL3VWhooXW9-70G-48">
          <mxGeometry width="108" height="33" as="geometry">
            <mxRectangle width="108" height="33" as="alternateBounds" />
          </mxGeometry>
        </mxCell>
        <mxCell id="YPxERGL3VWhooXW9-70G-50" value="Property" style="connectable=0;recursiveResize=0;strokeColor=inherit;fillColor=inherit;fontStyle=0;align=center;whiteSpace=wrap;html=1;" vertex="1" parent="YPxERGL3VWhooXW9-70G-48">
          <mxGeometry x="108" width="122" height="33" as="geometry">
            <mxRectangle width="122" height="33" as="alternateBounds" />
          </mxGeometry>
        </mxCell>
        <mxCell id="YPxERGL3VWhooXW9-70G-51" value="&lt;font style=&quot;font-size: 10px;&quot;&gt;Specifies the Person who edited the CreativeWork.&lt;/font&gt;" style="connectable=0;recursiveResize=0;strokeColor=inherit;fillColor=inherit;fontStyle=0;align=left;whiteSpace=wrap;html=1;" vertex="1" parent="YPxERGL3VWhooXW9-70G-48">
          <mxGeometry x="230" width="270" height="33" as="geometry">
            <mxRectangle width="270" height="33" as="alternateBounds" />
          </mxGeometry>
        </mxCell>
        <mxCell id="YPxERGL3VWhooXW9-70G-52" value="" style="shape=tableRow;horizontal=0;startSize=0;swimlaneHead=0;swimlaneBody=0;top=0;left=0;bottom=0;right=0;dropTarget=0;collapsible=0;recursiveResize=0;expand=0;fontStyle=1;strokeColor=inherit;fillColor=#EAF2D3;" vertex="1" parent="YPxERGL3VWhooXW9-70G-35">
          <mxGeometry y="144" width="500" height="31" as="geometry" />
        </mxCell>
        <mxCell id="YPxERGL3VWhooXW9-70G-53" value="..." style="connectable=0;recursiveResize=0;strokeColor=inherit;fillColor=inherit;whiteSpace=wrap;html=1;" vertex="1" parent="YPxERGL3VWhooXW9-70G-52">
          <mxGeometry width="108" height="31" as="geometry">
            <mxRectangle width="108" height="31" as="alternateBounds" />
          </mxGeometry>
        </mxCell>
        <mxCell id="YPxERGL3VWhooXW9-70G-54" value="..." style="connectable=0;recursiveResize=0;strokeColor=inherit;fillColor=inherit;whiteSpace=wrap;html=1;" vertex="1" parent="YPxERGL3VWhooXW9-70G-52">
          <mxGeometry x="108" width="122" height="31" as="geometry">
            <mxRectangle width="122" height="31" as="alternateBounds" />
          </mxGeometry>
        </mxCell>
        <mxCell id="YPxERGL3VWhooXW9-70G-55" value="..." style="connectable=0;recursiveResize=0;strokeColor=inherit;fillColor=inherit;whiteSpace=wrap;html=1;" vertex="1" parent="YPxERGL3VWhooXW9-70G-52">
          <mxGeometry x="230" width="270" height="31" as="geometry">
            <mxRectangle width="270" height="31" as="alternateBounds" />
          </mxGeometry>
        </mxCell>
        <mxCell id="YPxERGL3VWhooXW9-70G-56" value="&lt;font color=&quot;#009900&quot; style=&quot;font-size: 26px;&quot; data-font-src=&quot;https://fonts.googleapis.com/css?family=Caveat&quot; face=&quot;Caveat&quot;&gt;Controlled vocabulary&lt;/font&gt;" style="text;html=1;strokeColor=none;fillColor=none;align=center;verticalAlign=middle;whiteSpace=wrap;rounded=0;" vertex="1" parent="1">
          <mxGeometry x="50" y="380" width="520" height="40" as="geometry" />
        </mxCell>
        <mxCell id="YPxERGL3VWhooXW9-70G-57" value="&lt;font color=&quot;#009900&quot; style=&quot;font-size: 32px;&quot; data-font-src=&quot;https://fonts.googleapis.com/css?family=Caveat&quot; face=&quot;Caveat&quot;&gt;&lt;b&gt;Ontology&lt;/b&gt;&lt;/font&gt;" style="text;html=1;strokeColor=none;fillColor=none;align=center;verticalAlign=middle;whiteSpace=wrap;rounded=0;" vertex="1" parent="1">
          <mxGeometry x="30" y="-100" width="520" height="40" as="geometry" />
        </mxCell>
      </root>
    </mxGraphModel>
  </diagram>
</mxfile>
